<mxfile host="65bd71144e">
    <diagram name="PÃ¡gina-1" id="xmpRHpyeeAoT0MzJgOuO">
        <mxGraphModel dx="662" dy="364" grid="1" gridSize="10" guides="1" tooltips="1" connect="1" arrows="1" fold="1" page="1" pageScale="1" pageWidth="1169" pageHeight="827" math="0" shadow="0">
            <root>
                <mxCell id="0"/>
                <mxCell id="1" parent="0"/>
                <mxCell id="pGkVvPzw9w6SAjTayJzB-1" value="GraphMnager" style="swimlane;fontStyle=1;align=center;verticalAlign=top;childLayout=stackLayout;horizontal=1;startSize=26;horizontalStack=0;resizeParent=1;resizeParentMax=0;resizeLast=0;collapsible=1;marginBottom=0;" parent="1" vertex="1">
                    <mxGeometry x="260" y="186" width="160" height="332" as="geometry"/>
                </mxCell>
                <mxCell id="pGkVvPzw9w6SAjTayJzB-2" value="+ field: type" style="text;strokeColor=none;fillColor=none;align=left;verticalAlign=top;spacingLeft=4;spacingRight=4;overflow=hidden;rotatable=0;points=[[0,0.5],[1,0.5]];portConstraint=eastwest;" parent="pGkVvPzw9w6SAjTayJzB-1" vertex="1">
                    <mxGeometry y="26" width="160" height="26" as="geometry"/>
                </mxCell>
                <mxCell id="pGkVvPzw9w6SAjTayJzB-14" value="+ field: type" style="text;strokeColor=none;fillColor=none;align=left;verticalAlign=top;spacingLeft=4;spacingRight=4;overflow=hidden;rotatable=0;points=[[0,0.5],[1,0.5]];portConstraint=eastwest;" parent="pGkVvPzw9w6SAjTayJzB-1" vertex="1">
                    <mxGeometry y="52" width="160" height="26" as="geometry"/>
                </mxCell>
                <mxCell id="pGkVvPzw9w6SAjTayJzB-15" value="+ field: type" style="text;strokeColor=none;fillColor=none;align=left;verticalAlign=top;spacingLeft=4;spacingRight=4;overflow=hidden;rotatable=0;points=[[0,0.5],[1,0.5]];portConstraint=eastwest;" parent="pGkVvPzw9w6SAjTayJzB-1" vertex="1">
                    <mxGeometry y="78" width="160" height="26" as="geometry"/>
                </mxCell>
                <mxCell id="pGkVvPzw9w6SAjTayJzB-16" value="+ field: type" style="text;strokeColor=none;fillColor=none;align=left;verticalAlign=top;spacingLeft=4;spacingRight=4;overflow=hidden;rotatable=0;points=[[0,0.5],[1,0.5]];portConstraint=eastwest;" parent="pGkVvPzw9w6SAjTayJzB-1" vertex="1">
                    <mxGeometry y="104" width="160" height="26" as="geometry"/>
                </mxCell>
                <mxCell id="pGkVvPzw9w6SAjTayJzB-17" value="+ field: type" style="text;strokeColor=none;fillColor=none;align=left;verticalAlign=top;spacingLeft=4;spacingRight=4;overflow=hidden;rotatable=0;points=[[0,0.5],[1,0.5]];portConstraint=eastwest;" parent="pGkVvPzw9w6SAjTayJzB-1" vertex="1">
                    <mxGeometry y="130" width="160" height="26" as="geometry"/>
                </mxCell>
                <mxCell id="pGkVvPzw9w6SAjTayJzB-3" value="" style="line;strokeWidth=1;fillColor=none;align=left;verticalAlign=middle;spacingTop=-1;spacingLeft=3;spacingRight=3;rotatable=0;labelPosition=right;points=[];portConstraint=eastwest;strokeColor=inherit;" parent="pGkVvPzw9w6SAjTayJzB-1" vertex="1">
                    <mxGeometry y="156" width="160" height="20" as="geometry"/>
                </mxCell>
                <mxCell id="pGkVvPzw9w6SAjTayJzB-4" value="+ method(type): type" style="text;strokeColor=none;fillColor=none;align=left;verticalAlign=top;spacingLeft=4;spacingRight=4;overflow=hidden;rotatable=0;points=[[0,0.5],[1,0.5]];portConstraint=eastwest;" parent="pGkVvPzw9w6SAjTayJzB-1" vertex="1">
                    <mxGeometry y="176" width="160" height="26" as="geometry"/>
                </mxCell>
                <mxCell id="pGkVvPzw9w6SAjTayJzB-7" value="+ method(type): type" style="text;strokeColor=none;fillColor=none;align=left;verticalAlign=top;spacingLeft=4;spacingRight=4;overflow=hidden;rotatable=0;points=[[0,0.5],[1,0.5]];portConstraint=eastwest;" parent="pGkVvPzw9w6SAjTayJzB-1" vertex="1">
                    <mxGeometry y="202" width="160" height="26" as="geometry"/>
                </mxCell>
                <mxCell id="pGkVvPzw9w6SAjTayJzB-8" value="+ method(type): type" style="text;strokeColor=none;fillColor=none;align=left;verticalAlign=top;spacingLeft=4;spacingRight=4;overflow=hidden;rotatable=0;points=[[0,0.5],[1,0.5]];portConstraint=eastwest;" parent="pGkVvPzw9w6SAjTayJzB-1" vertex="1">
                    <mxGeometry y="228" width="160" height="26" as="geometry"/>
                </mxCell>
                <mxCell id="pGkVvPzw9w6SAjTayJzB-9" value="+ method(type): type" style="text;strokeColor=none;fillColor=none;align=left;verticalAlign=top;spacingLeft=4;spacingRight=4;overflow=hidden;rotatable=0;points=[[0,0.5],[1,0.5]];portConstraint=eastwest;" parent="pGkVvPzw9w6SAjTayJzB-1" vertex="1">
                    <mxGeometry y="254" width="160" height="26" as="geometry"/>
                </mxCell>
                <mxCell id="pGkVvPzw9w6SAjTayJzB-10" value="+ method(type): type" style="text;strokeColor=none;fillColor=none;align=left;verticalAlign=top;spacingLeft=4;spacingRight=4;overflow=hidden;rotatable=0;points=[[0,0.5],[1,0.5]];portConstraint=eastwest;" parent="pGkVvPzw9w6SAjTayJzB-1" vertex="1">
                    <mxGeometry y="280" width="160" height="26" as="geometry"/>
                </mxCell>
                <mxCell id="pGkVvPzw9w6SAjTayJzB-11" value="+ method(type): type" style="text;strokeColor=none;fillColor=none;align=left;verticalAlign=top;spacingLeft=4;spacingRight=4;overflow=hidden;rotatable=0;points=[[0,0.5],[1,0.5]];portConstraint=eastwest;" parent="pGkVvPzw9w6SAjTayJzB-1" vertex="1">
                    <mxGeometry y="306" width="160" height="26" as="geometry"/>
                </mxCell>
            </root>
        </mxGraphModel>
    </diagram>
</mxfile>